<?xml version="1.0" standalone="no"?><!DOCTYPE svg PUBLIC "-//W3C//DTD SVG 1.1//EN" "http://www.w3.org/Graphics/SVG/1.1/DTD/svg11.dtd"><svg t="1681885629089" class="icon" viewBox="0 0 1024 1024" version="1.1" xmlns="http://www.w3.org/2000/svg" p-id="6208" xmlns:xlink="http://www.w3.org/1999/xlink" width="200" height="200"><path d="M309.1 131.2c-97.6 0-176.7 79.1-176.7 176.7s79.1 176.7 176.7 176.7h176.7V307.9c0-97.5-79.1-176.7-176.7-176.7zM893.5 307.9c0-97.6-79.1-176.7-176.7-176.7s-176.7 79.1-176.7 176.7v176.7h176.7c97.6 0 176.7-79.1 176.7-176.7zM132.4 715.7c0 97.6 79.1 176.7 176.7 176.7s176.7-79.1 176.7-176.7V539H309.1c-97.6 0-176.7 79.1-176.7 176.7zM716.9 539H540.2v176.7c0 97.6 79.1 176.7 176.7 176.7s176.7-79.1 176.7-176.7S814.4 539 716.9 539z" fill="#3259CE" p-id="6209"></path></svg>