<?xml version="1.0" standalone="no"?><!DOCTYPE svg PUBLIC "-//W3C//DTD SVG 1.1//EN" "http://www.w3.org/Graphics/SVG/1.1/DTD/svg11.dtd"><svg t="1681885761135" class="icon" viewBox="0 0 1024 1024" version="1.1" xmlns="http://www.w3.org/2000/svg" p-id="11415" xmlns:xlink="http://www.w3.org/1999/xlink" width="200" height="200"><path d="M730.85 960.13H286.44c-53.69 0-101.6-32.96-119.23-82.02-11.81-32.87-8.14-68.26 10.33-99.66 13.23-22.48 33.63-41.84 57.11-55.26-70.93-72.14-110.87-168.67-110.87-271.28 0-117.55 52.42-227.49 143.8-301.63 91.4-74.11 211.14-102.41 328.53-77.69 150.83 31.79 270.47 155.65 297.7 308.21 22.54 126.38-15.05 249.71-101.27 339.16a128.756 128.756 0 0 1 46.23 44.33c22.27 36 25.19 80.13 8.03 121.09-19.03 45.42-64.55 74.75-115.95 74.75zM512.73 123.24c-75.64 0-148.73 25.29-207.75 73.17-77.42 62.81-121.83 155.94-121.83 255.51 0 100.85 45.61 194.79 125.12 257.71a30.546 30.546 0 0 1 10.76 31.02l-0.18 0.74c-3.09 11.64-12.79 20.4-24.72 22.31-25.8 4.23-52.14 22.27-65.42 44.86-9.64 16.39-11.54 33.04-5.64 49.48 9.19 25.55 34.64 42.72 63.36 42.72h444.41c26.99 0 51.58-15.4 61.19-38.32 9.8-23.37 8.47-47.13-3.77-66.89-11.73-18.97-32.01-31.17-54.21-32.62-12.29-0.8-22.9-8.91-26.91-20.56l-0.26-0.75c-3.8-12.1 0.16-25.03 10.09-32.97 95.9-76.68 140.16-195.34 118.39-317.4-23.02-128.98-124.1-233.68-251.48-260.54-23.73-5.01-47.58-7.47-71.15-7.47z" p-id="11416"></path><path d="M411.6 516.58c-20.03 0-36.26-16.24-36.26-36.26v-40.48c0-20.03 16.24-36.26 36.26-36.26 20.03 0 36.26 16.24 36.26 36.26v40.48c0.01 20.02-16.23 36.26-36.26 36.26zM612.33 516.58c-20.03 0-36.26-16.24-36.26-36.26v-40.48c0-20.03 16.24-36.26 36.26-36.26 20.03 0 36.26 16.24 36.26 36.26v40.48c0.01 20.02-16.23 36.26-36.26 36.26z" p-id="11417"></path></svg>